<?xml version="1.0" encoding="iso-8859-1"?>
<!-- Generator: Adobe Illustrator 19.0.0, SVG Export Plug-In . SVG Version: 6.00 Build 0)  -->
<svg version="1.1" id="Layer_1" xmlns="http://www.w3.org/2000/svg" xmlns:xlink="http://www.w3.org/1999/xlink" x="0px" y="0px"
	 viewBox="0 0 510.497 510.497" style="enable-background:new 0 0 510.497 510.497;" xml:space="preserve">
<rect x="190.148" y="255.597" style="fill:#F8B64C;" width="130.1" height="115.2"/>
<polygon style="opacity:0.1;fill:#40596B;enable-background:new    ;" points="320.349,255.597 320.349,294.997 272.349,334.497 
	220.048,292.897 248.848,255.597 "/>
<g>
	
		<ellipse transform="matrix(-0.9962 0.0872 -0.0872 -0.9962 350.161 335.8803)" style="fill:#F8B64C;" cx="167.746" cy="175.586" rx="20.3" ry="29.9"/>
	
		<ellipse transform="matrix(-0.9962 -0.0872 0.0872 -0.9962 668.7395 380.212)" style="fill:#F8B64C;" cx="342.672" cy="175.503" rx="20.3" ry="29.9"/>
</g>
<path style="fill:#FFD15C;" d="M348.048,131.797v30.9c0,6.4,0,12.8-1.1,19.2c-1.1,10.7-3.2,21.3-6.4,30.9
	c-7.5,24.5-20.3,46.9-38.4,66.1l-8.5,9.6c-8.5,8.5-19.2,13.9-32,13.9h-13.9c-11.7,0-23.5-5.3-32-13.9l-8.5-9.6
	c-12.8-13.9-22.4-28.8-29.9-44.8s-12.8-34.1-14.9-52.3c-1.1-6.4-1.1-12.8-1.1-19.2c0-1.1,0-1.1,0-2.1v-27.7c0-8.5,3.2-41.6,5.3-50.1
	c10.7-39.5,44.8-42.7,87.5-42.7s78.9,28.8,89.6,67.2C346.949,114.797,348.048,123.297,348.048,131.797z"/>
<rect x="159.248" y="356.897" style="fill:#FFFFFF;" width="190.9" height="106.7"/>
<polygon style="fill:#FF7058;" points="231.748,464.597 278.749,464.597 271.249,390.997 284.048,376.097 255.248,348.397 
	226.448,377.197 239.248,390.997 "/>
<g>
	<path style="fill:#40596B;" d="M489.949,464.597v-33.1c0-37.3-23.5-70.4-58.7-83.2l-112-52.3l0,0l-14.9,168.5L489.949,464.597
		L489.949,464.597z"/>
	<path style="fill:#40596B;" d="M205.148,464.597l-14.9-168.5l-112,51.2c-34.1,12.8-57.6,45.9-57.6,83.2v33.1h184.5V464.597z"/>
</g>
<g>
	<path style="fill:#334A5E;" d="M403.548,464.597v-20.3l-53.3-52.3c-1.1-1.1,0-2.1,0-2.1l29.9-22.4c1.1,0-60.8-70.4-60.8-70.4
		l-14.9,168.5h99.2v-1H403.548z"/>
	<path style="fill:#334A5E;" d="M106.948,444.397c0,0,0,19.2,0,20.3h98.1l-14.9-168.5c0,0-61.9,70.4-60.8,70.4l29.9,22.4
		c1.1,0,1.1,2.1,0,2.1L106.948,444.397z"/>
</g>
<g>
	<polygon style="fill:#F2F2F2;" points="255.248,348.397 320.349,294.997 310.749,401.697 	"/>
	<polygon style="fill:#F2F2F2;" points="255.248,348.397 190.148,294.997 199.748,404.897 	"/>
</g>
<path style="fill:#334A5E;" d="M163.548,175.597v-34.1c0,0,21.3-41.6,17.1-70.4c0,0,92.8,46.9,147.2,10.7c0,0,11.7,49.1,21.3,69.3
	l-3.2,25.6c0,0,10.7-1.1,17.1-57.6c0,0,14.9-49.1-18.1-70.4c0,0-26.7-55.5-105.6-48c0,0-51.2,6.4-70.4,44.8l0,0
	c-17.1,18.1-25.6,41.6-23.5,66.1C146.448,129.697,151.748,153.197,163.548,175.597z"/>
<rect x="20.548" y="460.597" style="fill:#40596B;" width="469.3" height="49.9"/>
<path style="fill:#CDD6E0;" d="M391.749,392.097h-273c-12.8,0-23.5,11.7-21.3,24.5l14.9,93.9h285.9l14.9-93.9
	C415.249,403.797,405.648,392.097,391.749,392.097z"/>
<path style="fill:#F2F2F2;" d="M263.749,465.697c-2.1-2.1-4.3-3.2-7.5-3.2c-9.6,0-17.1,8.5-17.1,18.1c0,7.5,4.3,12.8,11.7,12.8
	c3.2,0,7.5-1.1,9.6-4.3c1.1,2.1,3.2,4.3,6.4,4.3c6.4,0,12.8-6.4,12.8-17.1c0-12.8-9.6-22.4-22.4-22.4c-14.9,0-27.7,12.8-27.7,27.7
	c0,12.8,9.6,22.4,22.4,22.4c5.3,0,10.7-1.1,14.9-4.3l1.1-1.1l-2.1-4.3l-1.1,1.1c-4.3,2.1-7.5,3.2-11.7,3.2
	c-10.7,0-18.1-7.5-18.1-17.1c0-11.7,10.7-22.4,22.4-22.4c5.3,0,9.6,2.1,12.8,5.3h-6.4L263.749,465.697L263.749,465.697z
	 M260.548,481.697c-1.1,2.1-4.3,5.3-8.5,5.3c-4.2,0-5.3-3.2-5.3-6.4c0-5.3,4.3-11.7,10.7-11.7c3.2,0,5.3,2.1,5.3,3.2
	L260.548,481.697z M271.249,464.597c2.1,3.2,3.2,6.4,3.2,10.7c0,8.5-4.3,10.7-6.4,10.7c-1.1,0-2.1-1.1-2.1-2.1v-1.1L271.249,464.597
	z"/>
<g>
</g>
<g>
</g>
<g>
</g>
<g>
</g>
<g>
</g>
<g>
</g>
<g>
</g>
<g>
</g>
<g>
</g>
<g>
</g>
<g>
</g>
<g>
</g>
<g>
</g>
<g>
</g>
<g>
</g>
</svg>
