<svg xmlns="http://www.w3.org/2000/svg" viewBox="0 0 50 50">
    <path style="line-height:normal;text-indent:0;text-align:start;text-decoration-line:none;text-decoration-style:solid;text-decoration-color:#000;text-transform:none;block-progression:tb;isolation:auto;mix-blend-mode:normal" d="M 24.876953 3.03125 C 20.174523 3.1369226 17.184675 5.1388758 15.896484 8.1328125 C 14.665692 10.993348 14.913746 14.563863 15.787109 18.244141 C 15.323853 18.791233 14.939294 19.533249 15.035156 20.683594 L 15.037109 20.708984 L 15.041016 20.734375 C 15.207459 21.954963 15.545246 22.821637 16.011719 23.431641 C 16.242893 23.733945 16.575971 23.746601 16.863281 23.912109 C 17.030052 24.984874 17.345087 26.054472 17.783203 26.933594 C 18.032558 27.433948 18.299823 27.879784 18.572266 28.251953 C 18.697256 28.422695 18.869076 28.529856 19 28.671875 L 19 32.253906 C 18.871377 32.588269 18.674364 32.890083 18.369141 33.185547 C 18.217825 33.330995 18.053998 33.473644 17.867188 33.607422 L 20.992188 37.414062 L 23.222656 34.640625 L 23.230469 34.646484 L 24.501953 33.074219 L 21.085938 31.042969 C 21.058643 31.026649 21.028123 31.025149 21 31.011719 L 21 27.71875 L 20.496094 27.431641 C 20.573194 27.475701 20.372917 27.32627 20.185547 27.070312 C 19.998177 26.814356 19.777661 26.453161 19.572266 26.041016 C 19.161475 25.216724 18.809555 24.176102 18.726562 23.304688 L 18.640625 22.400391 L 17.730469 22.400391 C 17.880469 22.400391 17.783139 22.456791 17.599609 22.216797 C 17.419772 21.981621 17.16903 21.442235 17.033203 20.5 C 16.981293 19.687327 17.467532 19.276854 17.384766 19.332031 L 17.974609 18.939453 L 17.800781 18.253906 C 16.879333 14.616609 16.73807 11.239391 17.734375 8.9238281 C 18.729618 6.6107423 20.721785 5.1303965 24.910156 5.0332031 C 26.921459 5.0355331 28.219511 5.6187707 28.636719 6.3339844 L 28.880859 6.7539062 L 29.361328 6.8203125 C 30.72864 7.0125907 31.530684 7.5704081 32.115234 8.3808594 C 32.699785 9.1913106 33.032732 10.311661 33.152344 11.548828 C 33.391567 14.023163 32.749674 16.918101 32.304688 18.164062 L 32.005859 18.998047 L 32.798828 19.394531 C 32.662172 19.326201 33.123246 19.62456 33.048828 20.517578 C 32.959358 21.482515 32.718514 21.997454 32.550781 22.216797 C 32.382286 22.437137 32.31237 22.400391 32.345703 22.400391 L 31.478516 22.400391 L 31.355469 23.257812 C 31.227537 24.153337 30.84984 25.206363 30.429688 26.037109 C 30.219611 26.452483 30.000098 26.813382 29.8125 27.070312 C 29.624902 27.327244 29.424756 27.476869 29.503906 27.431641 L 29 27.71875 L 29 31.078125 L 25.546875 33.132812 L 26.816406 34.705078 L 26.824219 34.699219 L 29.007812 37.412109 L 32.121094 33.619141 C 31.939144 33.49343 31.778052 33.361073 31.626953 33.224609 C 31.330826 32.955755 31.167652 32.65565 31 32.246094 L 31 28.671875 C 31.130688 28.529549 31.30324 28.420506 31.427734 28.25 C 31.698762 27.878806 31.96342 27.43658 32.214844 26.939453 C 32.659283 26.060686 32.9994 24.996557 33.205078 23.935547 C 33.528892 23.772413 33.889771 23.759681 34.140625 23.431641 C 34.62213 22.801981 34.929513 21.917934 35.041016 20.691406 L 35.042969 20.6875 L 35.042969 20.683594 C 35.131609 19.61996 34.803648 18.861032 34.324219 18.28125 C 34.84436 16.645069 35.401917 14.039816 35.142578 11.357422 C 35.000643 9.8898271 34.610402 8.4227988 33.736328 7.2109375 C 32.940271 6.1072428 31.665108 5.3251957 30.068359 4.9882812 C 29.006009 3.5914057 27.093809 3.03125 24.900391 3.03125 L 24.888672 3.03125 L 24.876953 3.03125 z M 33.923828 34.578125 L 29.773438 39.634766 C 29.582437 39.866766 29.299 40 29 40 L 28.994141 40 C 28.693141 39.998 28.408703 39.860953 28.220703 39.626953 L 26.257812 37.185547 L 25.5 37.800781 C 25.5 37.800781 27.900391 41.799609 27.900391 45.599609 L 27.900391 46 L 45.056641 46 L 44.998047 44.945312 C 44.664047 38.854312 39.795766 36.930719 35.884766 35.386719 C 35.192766 35.113719 34.532828 34.849125 33.923828 34.578125 z M 16.080078 34.582031 C 15.465078 34.857031 14.798703 35.126297 14.095703 35.404297 C 10.193703 36.950297 5.3379063 38.876313 5.0039062 44.945312 L 4.9433594 46 L 22.099609 46 L 22.099609 45.599609 C 22.099609 41.900609 24.5 37.800781 24.5 37.800781 L 23.744141 37.185547 L 21.779297 39.626953 C 21.590297 39.860953 21.306859 39.998 21.005859 40 L 21.001953 40 C 20.702953 40 20.418516 39.865766 20.228516 39.634766 L 16.080078 34.582031 z" color="#000" font-weight="400" font-family="sans-serif" white-space="normal" overflow="visible"/>
</svg>
