<?xml version="1.0" encoding="iso-8859-1"?>
<!-- Generator: Adobe Illustrator 19.0.0, SVG Export Plug-In . SVG Version: 6.00 Build 0)  -->
<svg version="1.1" id="Capa_1" xmlns="http://www.w3.org/2000/svg" xmlns:xlink="http://www.w3.org/1999/xlink" x="0px" y="0px"
	 viewBox="0 0 512 512" style="enable-background:new 0 0 512 512;" xml:space="preserve">
<path style="fill:#FFB125;" d="M365.74,209.957l-6.634-104.796c-2.431-38.407-34.29-68.312-72.773-68.312h-60.666
	c-38.483,0-70.342,29.906-72.773,68.312l-6.634,104.796c-1.513,23.909,17.47,44.132,41.426,44.132h136.628
	C348.27,254.088,367.254,233.865,365.74,209.957z"/>
<path style="fill:#FF901D;" d="M365.74,209.957l-6.634-104.796c-2.431-38.407-34.29-68.312-72.773-68.312h-11.351
	c16.577,0,30.3,12.882,31.347,29.426l11.889,187.814h6.096C348.27,254.088,367.254,233.865,365.74,209.957z"/>
<g>
	<path style="fill:#FFE7CF;" d="M235.608,450.874c8.459,16.712,32.326,16.712,40.785,0l67.279-132.92l-21.678-5.264
		c-10.052-2.02-17.285-13.681-17.285-23.935v-45.693H256l0,0h-48.708v45.693c0,10.253-7.232,21.915-17.285,23.935l-21.678,5.264
		L235.608,450.874z"/>
	<path style="fill:#FFE7CF;" d="M347.482,149.995h-5.839l0,0c0-3.243-2.484-5.943-5.714-6.234
		c-77.814-7.002-103.392-28.807-124.619-50.826c-3.777-3.918-40.365,11.529-40.952,47.443v9.617h-5.839
		c-8.561,0-15.5,6.94-15.5,15.5v17.177c0,8.56,6.94,15.5,15.5,15.5h5.862c0.483,22.496,16.375,44.148,33.453,58.853
		c13.749,11.839,26.637,22.172,52.167,22.457c25.53-0.285,38.418-10.618,52.167-22.457c17.078-14.705,32.97-36.357,33.453-58.853
		h5.862c8.561,0,15.5-6.94,15.5-15.5v-17.177C362.982,156.934,356.042,149.995,347.482,149.995z"/>
</g>
<path style="fill:#F4D5BA;" d="M341.643,149.995c0-3.243-2.484-5.943-5.715-6.234c-17.388-1.565-32.161-3.87-44.867-6.75
	l-0.014,61.161c-0.483,22.496-16.375,44.148-33.453,58.853c-8.286,7.135-16.264,13.719-26.88,17.89
	c6.999,2.75,15.143,4.454,25.286,4.567c25.53-0.285,38.418-10.618,52.167-22.457c17.078-14.705,32.97-36.357,33.453-58.853
	L341.643,149.995z"/>
<path style="fill:#24D9DE;" d="M321.023,10.966l-44.2-8.975c-13.078-2.655-26.556-2.655-39.634,0l-44.2,8.975
	c-6.932,1.408-10.941,8.703-8.413,15.309L195.7,55.343c2.752,7.192,9.655,11.941,17.355,11.941h87.9
	c7.7,0,14.603-4.749,17.355-11.941l11.124-29.068C331.964,19.669,327.955,12.374,321.023,10.966z"/>
<path style="fill:#11B9C1;" d="M321.023,10.966l-22.703-4.61l-23.897,56.342c-1.057,2.762-3.708,4.586-6.665,4.586h33.198
	c7.7,0,14.603-4.749,17.355-11.941l11.124-29.068C331.964,19.669,327.955,12.374,321.023,10.966z"/>
<path style="fill:#24D9DE;" d="M473.951,494.653l-22.507-131.767c-1.933-11.317-10.102-20.566-21.094-23.883l-101.036-30.485
	c-4.235-1.278-8.777,0.667-10.774,4.614l-48.241,95.307c-5.931,11.718-22.667,11.718-28.598,0l-48.241-95.307
	c-1.998-3.947-6.539-5.892-10.774-4.614L81.65,339.003c-10.992,3.316-19.161,12.566-21.094,23.883L38.049,494.653
	C36.5,503.721,43.485,512,52.684,512h406.632C468.515,512,475.5,503.721,473.951,494.653z"/>
<g>
	<path style="fill:#11B9C1;" d="M473.951,494.653l-22.507-131.767c-1.933-11.317-10.102-20.567-21.094-23.883l-101.036-30.485
		c-4.235-1.278-8.777,0.667-10.774,4.614l-10.762,21.261l80.798,24.379c5.6,1.69,9.763,6.403,10.748,12.169L423.418,512h35.898
		C468.515,512,475.5,503.72,473.951,494.653z"/>
	<path style="fill:#11B9C1;" d="M114.879,512l13.284-77.767c0.716-4.193-2.102-8.172-6.295-8.888
		c-4.191-0.717-8.172,2.102-8.888,6.294l-13.68,80.09c-0.015,0.09-0.02,0.18-0.032,0.27h15.611V512z"/>
	<path style="fill:#11B9C1;" d="M412.701,511.73l-13.68-80.09c-0.716-4.193-4.692-7.014-8.888-6.294
		c-4.193,0.716-7.011,4.695-6.295,8.888L397.121,512h15.612C412.721,511.91,412.716,511.82,412.701,511.73z"/>
</g>
<path style="fill:#FFFFFF;" d="M269.563,25.444h-5.862v-5.862c0-4.254-3.448-7.701-7.701-7.701c-4.253,0-7.701,3.448-7.701,7.701
	v5.862h-5.862c-4.253,0-7.701,3.448-7.701,7.701s3.448,7.701,7.701,7.701h5.862v5.861c0,4.254,3.448,7.701,7.701,7.701
	c4.253,0,7.701-3.448,7.701-7.701v-5.861h5.862c4.253,0,7.701-3.448,7.701-7.701S273.816,25.444,269.563,25.444z"/>
<path style="fill:#F4D5BA;" d="M319.315,311.875c-8.629-3.355-14.607-13.806-14.607-23.121v-28.782
	c-8.816,7.417-17.752,13.91-30.394,17.208v29.164c0,10.308,7.271,22.032,17.377,24.063l16.123,3.915l10.726-21.19
	C318.766,312.686,319.028,312.269,319.315,311.875z"/>
<path style="fill:#E1EFFB;" d="M241.701,408.439c5.931,11.718,22.667,11.718,28.598,0l37.643-74.369H204.058L241.701,408.439z"/>
<g>
</g>
<g>
</g>
<g>
</g>
<g>
</g>
<g>
</g>
<g>
</g>
<g>
</g>
<g>
</g>
<g>
</g>
<g>
</g>
<g>
</g>
<g>
</g>
<g>
</g>
<g>
</g>
<g>
</g>
</svg>
