<svg height="464pt" viewBox="-32 0 464 464" width="464pt" xmlns="http://www.w3.org/2000/svg"><path d="m119.703125 304h160.59375c30.769531-.007812 55.71875 24.933594 55.71875 55.703125v104.296875h-272v-104.296875c0-30.757813 24.929687-55.695313 55.6875-55.703125zm0 0" fill="#abc8bc"/><path d="m136 304-24 40 88 120 88-120-24-40zm0 0" fill="#d8a29e"/><path d="m136 304-24 40 88 120-56-160zm0 0" fill="#f8f8f8"/><path d="m264 304h-8l-56 160 88-120zm0 0" fill="#f8f8f8"/><path d="m352.015625 216h-304c10.519531-21.042969 16-44.25 16-67.777344v-12.222656c0-75.109375 60.890625-136 136-136s136 60.890625 136 136v12.222656c0 23.527344 5.480469 46.734375 16 67.777344zm0 0" fill="#1d3f54"/><path d="m304.015625 128v48c0 57.4375-46.5625 104-104 104s-104-46.5625-104-104v-64c0-17.671875 14.328125-32 32-32 36.136719 30.976562 82.164063 48.003906 129.761719 48zm0 0" fill="#e8d8bf"/><path d="m183.710938 417.457031 16.289062-81.457031 16.289062 81.457031-16.289062 46.542969zm0 0" fill="#4d8ebe"/><path d="m64 416h48v48h-48zm0 0" fill="#e8d8bf"/><path d="m288 416h48v48h-48zm0 0" fill="#e8d8bf"/><path d="m0 288h96v128h-96zm0 0" fill="#ecac7b"/><g fill="#f7ce49"><path d="m24 312h16v16h-16zm0 0"/><path d="m56 312h16v16h-16zm0 0"/><path d="m24 344h16v16h-16zm0 0"/><path d="m56 344h16v16h-16zm0 0"/><path d="m24 376h16v16h-16zm0 0"/><path d="m56 376h16v16h-16zm0 0"/></g><path d="m384 312v-40h-64v40h-16v104h96v-104zm0 0" fill="#6c3b15"/><path d="m304 248h96v32h-96zm0 0" fill="#595a6e"/><path d="m232.015625 304v-40h-64v40.015625l31.984375 31.984375 32-32zm0 0" fill="#e8d8bf"/><path d="m336 344h64v40h-64zm0 0" fill="#f7ce49"/></svg>