<?xml version="1.0" encoding="iso-8859-1"?>
<!-- Generator: Adobe Illustrator 19.0.0, SVG Export Plug-In . SVG Version: 6.00 Build 0)  -->
<svg version="1.1" id="Layer_1" xmlns="http://www.w3.org/2000/svg" xmlns:xlink="http://www.w3.org/1999/xlink" x="0px" y="0px"
	 viewBox="0 0 495.2 495.2" style="enable-background:new 0 0 495.2 495.2;" xml:space="preserve">
<ellipse style="fill:#8C285C;" cx="247.6" cy="291.2" rx="108.8" ry="65.6"/>
<ellipse style="fill:#F9BDA0;" cx="247.6" cy="383.2" rx="60" ry="75.2"/>
<g>
	<polyline style="fill:#8C285C;" points="201.2,308 230.8,273.6 226,164 146,180 	"/>
	<polyline style="fill:#8C285C;" points="294,308 264.4,273.6 269.2,164 348.4,180 	"/>
	<path style="fill:#8C285C;" d="M345.2,128c0,64,26.4,80-78.4,80h-38.4c-43.2,0-78.4-36.8-78.4-80l0,0c0-43.2,35.2-80,78.4-80h38.4
		C310,48,345.2,84.8,345.2,128L345.2,128z"/>
</g>
<rect x="199.6" y="240" style="fill:#F9BDA0;" width="96" height="112"/>
<polygon style="fill:#EAA78C;" points="299.6,356 248.4,384.8 198,240 297.2,240 "/>
<path style="fill:#FCCCB9;" d="M326.8,156.8c0,76.8-38.4,145.6-79.2,145.6s-79.2-68.8-79.2-145.6S206.8,68,247.6,68
	C288.4,67.2,326.8,80,326.8,156.8z"/>
<path style="fill:#F9BDA0;" d="M247.6,67.2c40.8,0,79.2,12.8,79.2,88.8c0,76.8-38.4,145.6-79.2,145.6"/>
<path style="fill:#BF588A;" d="M285.2,52.8c0,0,159.2,145.6-143.2,140c0,0-12.8-80,20-115.2c32.8-34.4,91.2-28.8,91.2-28.8
	L285.2,52.8z"/>
<path style="fill:#AF437C;" d="M252.4,48.8l32.8,4c0,0,159.2,145.6-143.2,140"/>
<path style="fill:#BF588A;" d="M230,52.8c0,0,22.4,120.8,122.4,132.8c0,0,15.2-72-12.8-104c-28-32.8-80.8-30.4-80.8-30.4L230,52.8z"
	/>
<path style="fill:#AF437C;" d="M351.6,185.6c0,0,15.2-72-12.8-104c-27.2-32.8-80-30.4-80-30.4l-29.6,1.6"/>
<polygon style="fill:#36C9B4;" points="262.8,495.2 452.4,492.8 455.6,422.4 305.2,348.8 247.6,394.4 190,348.8 39.6,422.4 
	42.8,492.8 232.4,495.2 232.4,495.2 247.6,495.2 "/>
<polyline style="fill:#22B2B2;" points="232.4,495.2 232.4,495.2 247.6,495.2 262.8,495.2 262.8,495.2 452.4,492.8 455.6,422.4 
	305.2,348.8 247.6,394.4 190,348.8 "/>
<polygon style="fill:#149CA3;" points="247.6,467.2 334.8,363.2 305.2,348.8 247.6,394.4 190,348.8 160.4,363.2 "/>
<polygon style="fill:#4EDDC5;" points="47.6,428 158,375.2 191.6,411.2 150,403.2 "/>
<path style="fill:#36C9B4;" d="M343.6,88V77.6c0-42.4-37.6-77.6-80-77.6h-32c-42.4,0-80,35.2-80,77.6V88H343.6z"/>
<g>
	<path style="fill:#22B2B2;" d="M231.6,88h32c40.8,0,76,12,78.4,28.8c0-1.6,1.6-4,1.6-5.6V76.8c0-41.6-37.6-76.8-80-76.8h-32"/>
</g>
<g>
	
		<ellipse transform="matrix(-0.4653 -0.8852 0.8852 -0.4653 275.5204 212.6937)" style="fill:#4EDDC5;" cx="202.003" cy="23.127" rx="8.8" ry="26.401"/>
	<circle style="fill:#4EDDC5;" cx="173.2" cy="45.6" r="3.2"/>
	<circle style="fill:#4EDDC5;" cx="166" cy="58.4" r="3.2"/>
</g>
<polygon style="fill:#AF437C;" points="343.6,130.4 218,143.2 154.8,88 343.6,88 "/>
<g>
	<rect x="231.6" y="16" style="fill:#CEEFEB;" width="24" height="56"/>
	<rect x="215.6" y="32" style="fill:#CEEFEB;" width="56" height="24"/>
</g>
<g>
</g>
<g>
</g>
<g>
</g>
<g>
</g>
<g>
</g>
<g>
</g>
<g>
</g>
<g>
</g>
<g>
</g>
<g>
</g>
<g>
</g>
<g>
</g>
<g>
</g>
<g>
</g>
<g>
</g>
</svg>
