<?xml version="1.0" encoding="iso-8859-1"?>
<!-- Generator: Adobe Illustrator 19.0.0, SVG Export Plug-In . SVG Version: 6.00 Build 0)  -->
<svg version="1.1" id="Capa_1" xmlns="http://www.w3.org/2000/svg" xmlns:xlink="http://www.w3.org/1999/xlink" x="0px" y="0px"
	 viewBox="0 0 512 512" style="enable-background:new 0 0 512 512;" xml:space="preserve">
<path style="fill:#F8B64C;" d="M317.867,319.721l-2.133,89.6L256,449.855l-58.667-39.467l-3.2-90.667c0,0,19.2-18.133,13.867-36.267
	h93.867C298.667,301.588,317.867,319.721,317.867,319.721z"/>
<path style="fill:#F2F2F2;" d="M446.933,472.255v-30.933c0-29.867-16-57.6-41.6-72.533L361.6,344.255l-43.733-24.533l0,0l-38.4,92.8
	l-14.933-62.933l10.667-11.733h-38.4l10.667,11.733l-14.933,62.933l-37.333-92.8l-43.733,24.533l-43.733,24.533
	c-25.6,14.933-41.6,42.667-41.6,72.533v30.933H446.933z"/>
<g>
	
		<ellipse transform="matrix(-0.3814 -0.9244 0.9244 -0.3814 57.2786 449.8556)" style="fill:#F8B64C;" cx="179.157" cy="205.763" rx="21.333" ry="14.933"/>
	
		<ellipse transform="matrix(-0.3814 0.9244 -0.9244 -0.3814 648.8019 -22.5758)" style="fill:#F8B64C;" cx="331.955" cy="205.795" rx="21.333" ry="14.933"/>
</g>
<path style="fill:#FFD15C;" d="M341.333,170.388c0,4.267,0,9.6-1.067,14.933l0,0c-6.4,50.133-41.6,131.2-84.267,131.2
	s-77.867-81.067-84.267-132.267c-1.067-4.267-1.067-9.6-1.067-13.867c0-46.933,38.4-85.333,85.333-85.333
	S341.333,123.455,341.333,170.388z"/>
<path style="fill:#40596B;" d="M173.867,200.255c-2.133-11.733-1.067-27.733,6.4-36.267c0,0-6.4-54.4,33.067-51.2
	c0,0,32,10.667,91.733,0c0,0,24.533-1.067,20.267,24.533c0,0-6.4,23.467,6.4,28.8l5.333,33.067l5.333-24.533
	c9.6-44.8-1.067-89.6-42.667-109.867c-1.067,0-1.067,0-1.067,0c5.333-7.467,16-4.267,16-4.267c-70.4-44.8-117.333-3.2-117.333-3.2
	c-50.133,45.867-34.133,99.2-34.133,99.2C157.867,175.721,173.867,200.255,173.867,200.255z"/>
<g>
	<path style="fill:#ACB3BA;" d="M99.2,355.988l43.733-24.533l39.467-22.4v-1.067l0,0c4.267-5.333,7.467-11.733,10.667-18.133
		c-9.6-14.933-18.133-32-24.533-51.2c-7.467-4.267-13.867-11.733-17.067-20.267c-4.267-9.6-4.267-20.267-1.067-29.867
		c-4.267-11.733-6.4-22.4-4.267-32c-1.067-6.4-3.2-20.267-1.067-36.267c-27.733-1.067-43.733,13.867-43.733,13.867
		c-38.4,35.2-26.667,75.733-26.667,75.733c-2.133,8.533,1.067,18.133,5.333,25.6c-3.2,3.2-4.267,10.667-1.067,17.067
		c2.133,6.4,7.467,9.6,11.733,10.667c5.333,16,12.8,32,21.333,44.8l0,0c3.2,13.867-10.667,27.733-10.667,27.733l0,0l-34.133,19.2
		L32,373.055c-20.267,11.733-32,32-32,55.467v10.667h49.067C50.133,405.055,69.333,373.055,99.2,355.988z"/>
	<path style="fill:#ACB3BA;" d="M480,373.055l-33.067-19.2l-34.133-19.2l0,0l0,0c0,0-13.867-13.867-10.667-27.733l0,0
		c8.533-12.8,16-28.8,21.333-44.8c4.267-1.067,9.6-5.333,11.733-10.667c3.2-8.533,1.067-17.067-4.267-19.2l2.133-8.533
		c7.467-34.133-1.067-69.333-32-84.267c-1.067-1.067-2.133-1.067-2.133-1.067c4.267-5.333,11.733-3.2,11.733-3.2
		c-19.2-12.8-36.267-16-51.2-16c4.267,18.133,3.2,38.4-1.067,59.733v2.133c6.4,9.6,8.533,23.467,2.133,36.267
		c-3.2,8.533-9.6,16-17.067,20.267c-6.4,19.2-14.933,36.267-24.533,51.2c3.2,6.4,6.4,12.8,10.667,18.133l0,0v1.067l82.133,46.933
		c30.933,17.067,49.067,49.067,50.133,84.267H512v-10.667C512,406.121,499.2,384.788,480,373.055z"/>
</g>
<polygon style="fill:#FF7058;" points="387.2,416.788 366.933,416.788 366.933,396.521 353.067,396.521 353.067,416.788 
	332.8,416.788 332.8,430.655 353.067,430.655 353.067,450.921 366.933,450.921 366.933,430.655 387.2,430.655 "/>
<g>
</g>
<g>
</g>
<g>
</g>
<g>
</g>
<g>
</g>
<g>
</g>
<g>
</g>
<g>
</g>
<g>
</g>
<g>
</g>
<g>
</g>
<g>
</g>
<g>
</g>
<g>
</g>
<g>
</g>
</svg>
