<?xml version="1.0" encoding="iso-8859-1"?>
<!-- Generator: Adobe Illustrator 19.0.0, SVG Export Plug-In . SVG Version: 6.00 Build 0)  -->
<svg version="1.1" id="Capa_1" xmlns="http://www.w3.org/2000/svg" xmlns:xlink="http://www.w3.org/1999/xlink" x="0px" y="0px"
	 viewBox="0 0 508.267 508.267" style="enable-background:new 0 0 508.267 508.267;" xml:space="preserve">
<path style="fill:#334A5E;" d="M361.333,141.333C359.2,83.733,320.8,70.933,253.6,72c-67.2-2.133-105.6,11.733-107.733,68.267
	c-4.267,71.467-27.733,161.067-75.733,276.267h368C389.067,302.4,366.667,212.8,361.333,141.333z"/>
<g>
	<path style="fill:#ACB3BA;" d="M253.6,338.667L253.6,338.667L253.6,338.667C253.6,337.6,253.6,338.667,253.6,338.667z"/>
	<path style="fill:#ACB3BA;" d="M254.667,337.6L254.667,337.6C254.667,338.667,254.667,338.667,254.667,337.6
		C253.6,338.667,254.667,337.6,254.667,337.6z"/>
</g>
<path style="fill:#F8B64C;" d="M341.067,299.2H166.133c4.267,50.133,4.267,100.267,0,150.4H340
	C335.733,399.467,335.733,349.333,341.067,299.2z"/>
<path style="fill:#CDD6E0;" d="M493.6,508.267L493.6,508.267H14.667l0,0C14.667,430.4,77.6,366.4,156.533,366.4h14.933l83.2,82.133
	l83.2-82.133H352.8C429.6,367.467,493.6,430.4,493.6,508.267z"/>
<polygon style="fill:#54C0EB;" points="360.267,367.467 253.6,472 146.933,367.467 170.4,367.467 253.6,449.6 336.8,367.467 "/>
<polygon style="opacity:0.1;fill:#40596B;enable-background:new    ;" points="338.933,315.2 209.867,355.733 279.2,424 
	336.8,367.467 336.8,367.467 "/>
<g>
	
		<ellipse transform="matrix(-0.2272 -0.9738 0.9738 -0.2272 -42.7476 391.7253)" style="fill:#F8B64C;" cx="134.052" cy="212.824" rx="40.531" ry="15.999"/>
	
		<ellipse transform="matrix(-0.2272 0.9738 -0.9738 -0.2272 665.4339 -101.2099)" style="fill:#F8B64C;" cx="372.874" cy="213.421" rx="40.531" ry="15.999"/>
</g>
<path style="fill:#FFD15C;" d="M251.467,59.2C182.133,60.267,128.8,121.067,128.8,192.533V200c0,17.067,1.067,32,5.333,46.933
	c16,54.4,49.067,88.533,75.733,107.733c12.8,9.6,27.733,13.867,43.733,13.867l0,0c16,0,30.933-4.267,43.733-13.867
	c17.067-12.8,37.333-30.933,53.333-56.533c19.2-30.933,28.8-68.267,28.8-105.6v-4.267C379.467,115.733,321.867,58.133,251.467,59.2z
	"/>
<path style="fill:#40596B;" d="M203.467,111.467c0,0,110.933,76.8,186.667,85.333c0,0,12.8-154.667-110.933-187.733
	c0,0-174.933-29.867-163.2,187.733l0,0C143.733,195.733,189.6,145.6,203.467,111.467z"/>
<path style="fill:#F2F2F2;" d="M389.067,154.133c-85.333-40.533-184.533-40.533-270.933,0C107.467,114.667,100,70.933,93.6,30.4
	c102.4-40.533,216.533-40.533,320,0C408.267,70.933,399.733,114.667,389.067,154.133z"/>
<polygon style="fill:#FF7058;" points="296.267,51.733 264.267,51.733 264.267,19.733 242.933,19.733 242.933,51.733 
	210.933,51.733 210.933,73.067 242.933,73.067 242.933,105.067 264.267,105.067 264.267,73.067 296.267,73.067 "/>
<g>
</g>
<g>
</g>
<g>
</g>
<g>
</g>
<g>
</g>
<g>
</g>
<g>
</g>
<g>
</g>
<g>
</g>
<g>
</g>
<g>
</g>
<g>
</g>
<g>
</g>
<g>
</g>
<g>
</g>
</svg>
