<svg height="512pt" viewBox="-88 0 512 512.00338" width="512pt" xmlns="http://www.w3.org/2000/svg"><path d="m335.890625 512.003906h-335.890625l26.394531-194.824218c7.722657-30.800782 35.425781-52.390626 67.179688-52.347657h148.746093c31.753907-.042969 59.457032 21.546875 67.175782 52.347657zm0 0" fill="#b0d3f0"/><path d="m40.414062 485.519531c-.398437 0-.796874-.027343-1.191406-.078125-2.320312-.3125-4.421875-1.535156-5.839844-3.398437-1.417968-1.863281-2.039062-4.210938-1.726562-6.53125l12.925781-95.304688c.777344-4.710937 5.164063-7.953125 9.898438-7.308593 4.730469.640624 8.09375 4.933593 7.589843 9.683593l-12.898437 95.339844c-.613281 4.363281-4.351563 7.605469-8.757813 7.597656zm0 0" fill="#fff"/><g fill="#90bae1"><path d="m120.507812 264.832031-41.480468 35.308594 18.519531 26.484375v27.117188l70.621094 27.222656zm0 0"/><path d="m215.828125 264.832031 41.03125 35.308594-18.070313 26.484375v26.480469l-70.621093 27.859375zm0 0"/><path d="m176.730469 383.386719v128.617187h-17.65625v-128.617187c0-4.875 3.953125-8.828125 8.828125-8.828125s8.828125 3.953125 8.828125 8.828125zm0 0"/></g><path d="m256.441406 450.210938c-4.875 0-8.824218-3.953126-8.824218-8.828126v-52.964843c0-4.875 3.949218-8.828125 8.824218-8.828125 4.878906 0 8.828125 3.953125 8.828125 8.828125v52.964843c0 4.875-3.949219 8.828126-8.828125 8.828126zm0 0" fill="#c03a2b"/><path d="m282.925781 423.726562h-52.964843c-4.875 0-8.828126-3.953124-8.828126-8.828124s3.953126-8.824219 8.828126-8.824219h52.964843c4.875 0 8.828125 3.949219 8.828125 8.824219s-3.953125 8.828124-8.828125 8.828124zm0 0" fill="#c03a2b"/><path d="m71.0625 344.277344c0 4.878906-3.949219 8.828125-8.828125 8.828125-4.875 0-8.824219-3.949219-8.824219-8.828125 0-4.875 3.949219-8.824219 8.824219-8.824219 4.878906 0 8.828125 3.949219 8.828125 8.824219zm0 0" fill="#fff"/><path d="m215.835938 264.832031c-19.757813-19.757812-9.878907-61.792969-9.878907-61.792969h-75.570312s9.875 42.035157-9.878907 61.792969l47.660157 114.757813zm0 0" fill="#fdd7ad"/><path d="m238.789062 53.402344c0-61.792969-70.621093-52.964844-70.621093-52.964844s-70.621094-8.828125-70.621094 52.964844l1.234375 43.703125 6.789062 75.6875c2.03125 14.53125 12.550782 26.4375 26.722657 30.246093l26.277343 8.753907c6.082032 2.03125 12.660157 2.03125 18.742188 0l26.28125-8.753907c14.175781-3.816406 24.695312-15.746093 26.710938-30.289062l6.789062-75.644531zm0 0" fill="#fdd7ad"/><path d="m238.789062 96.382812s35.308594-17.65625 26.480469 26.484376c-8.828125 44.136718-26.480469 35.308593-26.480469 35.308593h-141.242187s-17.65625 8.828125-26.484375-35.308593c-8.828125-44.140626 26.484375-26.484376 26.484375-26.484376zm0 0" fill="#fdd7ad"/><path d="m238.789062 53.410156-.355468 8.5625c-105.578125 61.441406-105.578125-.175781-105.578125-.175781-13.582031 8.734375-25.214844 20.1875-34.160157 33.632813l-1.148437-42.019532c0-61.792968 70.621094-52.964844 70.621094-52.964844s70.621093-8.828124 70.621093 52.964844zm0 0" fill="#805333"/></svg>