<svg height="511pt" viewBox="-61 0 511 511.60617" width="511pt" xmlns="http://www.w3.org/2000/svg"><path d="m304.238281 317.398438h5.03125c71.324219 0 79.449219-97.101563 79.449219-97.101563-6.492188 4.746094-14.089844 7.753906-22.070312 8.738281-23.394532 1.589844-32.484376-26.304687-36.546876-44.492187-5.71875-25.597657-3.363281-51.921875-5.050781-77.894531-.652343-25.199219-11.777343-48.984376-30.699219-65.640626-12.847656-12.902343-28.078124-23.183593-44.847656-30.277343-35.265625-14.308594-74.722656-14.308594-109.988281 0-16.769531 7.09375-32 17.375-44.84375 30.277343-16.507813 14.980469-27.316406 35.222657-30.582031 57.273438-3.167969 28.707031 1.253906 57.828125-5.171875 86.261719-4.058594 18.1875-13.152344 46.082031-36.546875 44.492187-7.980469-.984375-15.578125-3.992187-22.066406-8.738281 0 0 8.121093 97.101563 79.445312 97.101563zm0 0" fill="#805333"/><path d="m132.804688 141.378906 6.003906 67.089844c1.675781 13.503906 10.945312 33.984375 23.832031 38.308594l23.484375 7.859375c5.449219 1.765625 11.320312 1.765625 16.769531 0l23.484375-7.859375c12.886719-4.324219 22.15625-24.804688 23.832032-38.308594l6.09375-67.621094-51.316407-35.089844zm0 0" fill="#fdd7ad"/><path d="m119.722656 74.71875c-3.546875-.011719-6.742187-2.152344-8.109375-5.425781-1.367187-3.273438-.640625-7.046875 1.84375-9.578125 21.453125-21.566406 50.632813-33.667969 81.054688-33.625 4.875 0 8.824219 3.953125 8.824219 8.828125s-3.949219 8.824219-8.824219 8.824219c-25.710938-.042969-50.375 10.164062-68.53125 28.363281-1.652344 1.671875-3.90625 2.613281-6.257813 2.613281zm0 0" fill="#cb8252"/><path d="m344.578125 511.605469h-300.136719l23.570313-165.074219c6.917969-27.511719 31.65625-46.796875 60.027343-46.789062h132.941407c28.371093-.007813 53.113281 19.277343 60.027343 46.789062zm0 0" fill="#b0d3f0"/><g fill="#90bae1"><path d="m150.371094 299.742188-35.308594 35.3125 17.65625 17.65625v26.480468l61.792969 26.484375zm0 0"/><path d="m240.855469 299.742188 33.101562 35.3125-17.652343 17.65625v26.480468l-61.792969 26.484375zm0 0"/><path d="m203.335938 405.675781v105.929688h-17.652344v-105.929688c0-4.875 3.949218-8.828125 8.828125-8.828125 4.875 0 8.824219 3.953125 8.824219 8.828125zm0 0"/></g><path d="m265.128906 485.125c-4.875 0-8.824218-3.953125-8.824218-8.828125v-52.964844c0-4.878906 3.949218-8.828125 8.824218-8.828125 4.878906 0 8.828125 3.949219 8.828125 8.828125v52.964844c0 4.875-3.949219 8.828125-8.828125 8.828125zm0 0" fill="#c03a2b"/><path d="m291.613281 458.640625h-52.964843c-4.875 0-8.828126-3.953125-8.828126-8.828125s3.953126-8.828125 8.828126-8.828125h52.964843c4.875 0 8.828125 3.953125 8.828125 8.828125s-3.953125 8.828125-8.828125 8.828125zm0 0" fill="#c03a2b"/><path d="m275.078125 152.886719c-31.9375 0-60.027344-28.246094-72.386719-42.75-18.757812 18.539062-69.824218 61.597656-110.828125 28.777343-3.808593-3.046874-4.425781-8.605468-1.378906-12.410156 3.046875-3.808594 8.605469-4.425781 12.414063-1.378906 37.023437 29.625 93.210937-33.542969 93.773437-34.234375 1.777344-2.023437 4.382813-3.128906 7.074219-2.996094 2.691406.132813 5.171875 1.488281 6.742187 3.675781.40625.558594 40.695313 55.933594 77.816407 41.078126 4.527343-1.816407 9.667968.386718 11.484374 4.914062 1.8125 4.53125-.390624 9.671875-4.917968 11.484375-6.292969 2.535156-13.007813 3.839844-19.792969 3.839844zm0 0" fill="#805333"/><path d="m106.234375 87.882812c0 4.875-3.953125 8.828126-8.828125 8.828126s-8.828125-3.953126-8.828125-8.828126 3.953125-8.828124 8.828125-8.828124 8.828125 3.953124 8.828125 8.828124zm0 0" fill="#cb8252"/><path d="m240.855469 299.742188c-17.65625-17.652344-8.828125-61.792969-8.828125-61.792969h-72.828125s8.828125 44.140625-8.828125 61.792969l44.140625 105.933593zm0 0" fill="#fdd7ad"/></svg>